<svg xmlns="http://www.w3.org/2000/svg" width="512" height="512" viewBox="0 0 400 400">
  <switch>
    <g>
      <path fill="#fff" d="M370.4 118.5v-14.8h-14.8V88.8h-14.8V74H326V59.2h-14.8V44.4h-74.1v14.8H207.4V74h-14.8V59.2H162.9V44.4H88.8v14.8H74V74H59.2v14.8H44.4v14.9H29.6v14.8H14.7V326h14.9v14.8H177.8v14.8H222.2v-14.8H370.4V326h14.9V118.5z"/>
      <g fill="#58595b">
        <path d="M148.1 88.8H88.8v14.9h74.1V88.8zM296.3 88.8h-59.2v14.9H311.2V88.8zM74 103.7h14.8v14.8H74zM162.9 103.7h14.8v14.8h-14.8zM222.2 103.7H237v14.8h-14.8zM311.2 103.7H326v14.8h-14.8zM148.1 133.3H88.8v14.8h74.1v-14.8zM296.3 133.3h-59.2v14.8H311.2v-14.8zM74 148.1h14.8v14.8H74zM162.9 148.1h14.8v14.8h-14.8zM222.2 148.1H237v14.8h-14.8zM311.2 148.1H326v14.8h-14.8zM148.1 177.8H88.8v14.8h74.1v-14.8zM296.3 177.8h-59.2v14.8H311.2v-14.8zM74 192.6h14.8v14.8H74zM162.9 192.6h14.8v14.8h-14.8zM222.2 192.6H237v14.8h-14.8zM311.2 192.6H326v14.8h-14.8zM148.1 222.2H88.8v14.9h74.1v-14.9zM296.3 222.2h-59.2v14.9H311.2v-14.9zM74 237.1h14.8v14.8H74zM162.9 237.1h14.8v14.8h-14.8zM222.2 237.1H237v14.8h-14.8zM311.2 237.1H326v14.8h-14.8z"/>
      </g>
      <g fill="#fff">
        <path d="M326 88.8V74h-14.8V59.2h-74V74h-29.6V296h14.8v-14.8H326V296h14.8V88.8zm0 163.1h-14.8v-14.8h-74v14.8h-14.8v-14.8h14.8v-14.8h74v14.8H326zm0-44.5h-14.8v-14.8h-74v14.8h-14.8v-14.8h14.8v-14.8h74v14.8H326zm0-44.5h-14.8v-14.8h-74v14.8h-14.8v-14.8h14.8v-14.8h74v14.8H326zm0-44.4h-14.8v-14.8h-74v14.8h-14.8v-14.8h14.8V88.8h74v14.8H326zM192.6 266.7V74H163V59.2H88.8V74H74v14.8H59.2V296H74v-14.8h103.6V296h14.8v-29.3zM74 103.7h14.8V88.8h74v14.8h14.8v14.8h-14.8v-14.8h-74v14.8H74zm0 44.4h14.8v-14.8h74v14.8h14.8v14.8h-14.8v-14.8h-74v14.8H74zm0 44.5h14.8v-14.8h74v14.8h14.8v14.8h-14.8v-14.8h-74v14.8H74zm0 44.5h14.8v-14.8h74v14.8h14.8v14.8h-14.8v-14.8h-74v14.8H74zM192.6 296.3h14.8v14.8h-14.8z"/>
      </g>
      <g fill="#ea840a">
        <path d="M162.9 296.3H74v14.9h103.8v-14.9zM311.2 296.3h-89v14.9H326v-14.9zM177.8 311.2h14.8V326h-14.8zM207.4 311.2h14.8V326h-14.8z"/>
      </g>
      <g fill="#faaf40">
        <path d="M355.6 118.5V311.2H222.2V326H370.4V118.5zM162.9 311.2H44.4V118.5H29.6V326H177.8v-14.8zM192.6 326h-14.8v14.8H222.2V326h-14.8z"/>
      </g>
      <path d="M118.5 59.2H162.9V44.4H88.8v14.8h14.9zM266.7 59.2h44.5V44.4h-74.1v14.8h14.8zM74 59.2h14.8V74H74zM177.8 74h14.8V59.2H162.9V74zM237.1 74V59.2H207.4V74h14.8zM311.2 59.2H326V74h-14.8zM59.2 74H74v14.8H59.2zM326 74h14.8v14.8H326zM192.6 103.7V296.3h14.8V74h-14.8v14.8zM340.8 118.5V296.3H326v14.9h29.6V118.5h14.8v-14.8h-14.8V88.8h-14.8v14.9zM44.4 133.3V311.2H74v-14.9H59.2V88.8H44.4v14.9H29.6v14.8h14.8z"/>
      <path d="M370.4 118.5V326h14.9V118.5zM162.9 281.5H74v14.8h103.8v-14.8zM311.2 281.5h-89v14.8H326v-14.8zM29.6 296.3V118.5H14.7V326h14.9v-14.8zM177.8 296.3h14.8v14.8h-14.8zM207.4 296.3h14.8v14.8h-14.8zM192.6 311.2h14.8V326h-14.8zM162.9 326H29.6v14.8H177.8V326zM340.8 326H222.2v14.8H370.4V326h-14.8zM192.6 340.8h-14.8v14.8H222.2v-14.8h-14.8z"/>
    </g>
  </switch>
</svg>