<svg xmlns="http://www.w3.org/2000/svg" id="Icons" viewBox="0 0 60 60">
    <defs>
        <style>
            .cls-2 {
                fill: #43dd97
            }

            .cls-3 {
                fill: #373737
            }
        </style>
    </defs>
    <path
        d="M30 51a8 8 0 0 0 15.8 1.8 7.66 7.66 0 0 0 6.19-8.09 6.989 6.989 0 0 0 2.35-12.19 6.976 6.976 0 0 0-.57-9.63A7.826 7.826 0 0 0 54 21a7.988 7.988 0 0 0-7.05-7.94A4.947 4.947 0 0 0 48 10a5 5 0 0 0-6.29-4.83A6 6 0 0 0 30 7a6 6 0 0 0-11.71-1.83A5 5 0 0 0 12 10a4.947 4.947 0 0 0 1.05 3.06A7.988 7.988 0 0 0 6 21a7.826 7.826 0 0 0 .23 1.89 6.976 6.976 0 0 0-.57 9.63 6.989 6.989 0 0 0 2.35 12.19 7.66 7.66 0 0 0 6.19 8.09A8 8 0 0 0 30 51Z"
        style="fill:#6352dd" />
    <circle cx="31" cy="28" r="4" class="cls-2" />
    <circle cx="22" cy="20" r="3" class="cls-2" />
    <circle cx="41" cy="20" r="3" class="cls-2" />
    <circle cx="26" cy="41" r="2" class="cls-2" />
    <circle cx="18" cy="32" r="3" class="cls-2" />
    <circle cx="39.5" cy="37.5" r="2.5" class="cls-2" />
    <path
        d="M18 28a4 4 0 0 0 0 8 3.949 3.949 0 0 0 1.813-.455l3.572 4.014A2.961 2.961 0 0 0 23 41a2.992 2.992 0 0 0 5.973.262l7.546-1.954a3.492 3.492 0 1 0 4.259-5.058l.884-10.317A3.993 3.993 0 1 0 37.142 19H25.858a3.992 3.992 0 1 0-6.032 4.349l-1.554 4.679C18.181 28.021 18.093 28 18 28Zm-2 4a2 2 0 1 1 2 2 2 2 0 0 1-2-2Zm21.356-10.368-3.177 2.541a4.9 4.9 0 0 0-6.161-.163l-2.473-2.2a3.876 3.876 0 0 0 .313-.81h11.284a4.085 4.085 0 0 0 .214.632Zm.686 12.7-3.035-3.372a4.864 4.864 0 0 0 .424-5.228l3.18-2.543a3.969 3.969 0 0 0 1.059.567l-.883 10.318a3.446 3.446 0 0 0-.745.254Zm-10.1 4.408 2.238-5.818a4.649 4.649 0 0 0 3.333-.623l3.023 3.355a3.47 3.47 0 0 0-.528 1.724l-7.527 1.949a3 3 0 0 0-.534-.591ZM31 25a3 3 0 1 1-3 3 3 3 0 0 1 3-3Zm-2.684 7.2L26.083 38c-.028 0-.055-.008-.083-.008a2.99 2.99 0 0 0-1.126.223l-3.555-3.994A3.971 3.971 0 0 0 22 32c0-.061-.015-.118-.018-.178l4.655-1.429a5.015 5.015 0 0 0 1.679 1.807ZM26 42a1 1 0 1 1 1-1 1 1 0 0 1-1 1Zm13.5-3a1.5 1.5 0 1 1 1.5-1.5 1.5 1.5 0 0 1-1.5 1.5ZM41 18a2 2 0 1 1-2 2 2 2 0 0 1 2-2Zm-19 0a2 2 0 1 1-2 2 2 2 0 0 1 2-2Zm-.272 5.972c.091.007.179.028.272.028a3.982 3.982 0 0 0 2.23-.681l2.462 2.187A4.948 4.948 0 0 0 26 28a4.777 4.777 0 0 0 .049.481L21.4 29.91a4.01 4.01 0 0 0-1.221-1.259Z"
        class="cls-3" />
    <path
        d="M6.993 45.414a8.61 8.61 0 0 0 6.391 8.2A9 9 0 0 0 30 55.121a9 9 0 0 0 16.616-1.5 8.61 8.61 0 0 0 6.391-8.2A8.039 8.039 0 0 0 58 38a7.909 7.909 0 0 0-2.31-5.617 7.98 7.98 0 0 0-.829-9.818A8.86 8.86 0 0 0 55 21a8.989 8.989 0 0 0-6.482-8.643A6 6 0 0 0 43 4a5.8 5.8 0 0 0-.66.037A7 7 0 0 0 30 3.4a7 7 0 0 0-12.34.64A5.8 5.8 0 0 0 17 4a6 6 0 0 0-4.736 9.678 1 1 0 1 0 1.572-1.237A3.96 3.96 0 0 1 13 10a4.019 4.019 0 0 1 5.036-3.863 1 1 0 0 0 1.206-.663A5 5 0 0 1 29 7a1 1 0 0 0 2 0 5 5 0 0 1 9.758-1.526 1 1 0 0 0 1.206.663A4.018 4.018 0 0 1 47 10a3.96 3.96 0 0 1-.836 2.441 1 1 0 0 0 .671 1.612A6.98 6.98 0 0 1 53 21a6.763 6.763 0 0 1-.2 1.646 1 1 0 0 0 .293.98A5.954 5.954 0 0 1 55 28a5.889 5.889 0 0 1-1.421 3.871 1 1 0 0 0 .144 1.436A5.924 5.924 0 0 1 56 38a6.016 6.016 0 0 1-4.291 5.75 1 1 0 0 0-.717 1.021 6.648 6.648 0 0 1-5.417 7.054 1 1 0 0 0-.75.749A7 7 0 0 1 31 51a1 1 0 0 0-2 0 7 7 0 0 1-13.825 1.574 1 1 0 0 0-.75-.749 6.648 6.648 0 0 1-5.417-7.054 1 1 0 0 0-.717-1.021A6.016 6.016 0 0 1 4 38a5.924 5.924 0 0 1 2.277-4.693 1 1 0 0 0 .144-1.436A5.889 5.889 0 0 1 5 28a5.954 5.954 0 0 1 1.907-4.374 1 1 0 0 0 .293-.98A6.763 6.763 0 0 1 7 21a6.971 6.971 0 0 1 2.625-5.467 1 1 0 1 0-1.25-1.56A8.958 8.958 0 0 0 5 21a8.86 8.86 0 0 0 .139 1.565 7.98 7.98 0 0 0-.829 9.818A7.909 7.909 0 0 0 2 38a8.039 8.039 0 0 0 4.993 7.414Z"
        class="cls-3" />
    <path
        d="M15 19a5.111 5.111 0 0 0-4.97 3.758 1 1 0 0 0 .728 1.212A1.017 1.017 0 0 0 11 24a1 1 0 0 0 .969-.758A3.176 3.176 0 0 1 15.005 21 1 1 0 0 0 15 19ZM9 36a1 1 0 0 0 0 2 3.182 3.182 0 0 1 3.03 2.242A1 1 0 0 0 13 41a1.017 1.017 0 0 0 .243-.03 1 1 0 0 0 .728-1.212A5.111 5.111 0 0 0 9 36ZM46 25a1 1 0 0 0 0 2 3.182 3.182 0 0 1 3.03 2.242A1 1 0 0 0 50 30a1.017 1.017 0 0 0 .243-.03 1 1 0 0 0 .728-1.212A5.111 5.111 0 0 0 46 25ZM46.03 39.758a1 1 0 0 0 .728 1.212A1.017 1.017 0 0 0 47 41a1 1 0 0 0 .969-.758A3.176 3.176 0 0 1 51.005 38 1 1 0 0 0 51 36a5.111 5.111 0 0 0-4.97 3.758ZM25 47a1 1 0 0 0-1-1 8.3 8.3 0 0 0-4.406 1.259A6.959 6.959 0 0 0 16 46a1 1 0 0 0-.009 2c.137 0 3.375.108 5.08 4.371A1 1 0 0 0 22 53a.986.986 0 0 0 .371-.071 1 1 0 0 0 .558-1.3 10.321 10.321 0 0 0-1.774-2.967A6.366 6.366 0 0 1 24 48a1 1 0 0 0 1-1ZM19.993 11a5.45 5.45 0 0 1 4.175 2.555 1 1 0 1 0 1.664-1.11A7.442 7.442 0 0 0 20 9a1 1 0 0 0-.007 2ZM37.629 52.929A.986.986 0 0 0 38 53a1 1 0 0 0 .929-.629C40.629 48.12 43.854 48 44.008 48A1 1 0 0 0 44 46a6.959 6.959 0 0 0-3.594 1.259A8.3 8.3 0 0 0 36 46a1 1 0 0 0 0 2 6.363 6.363 0 0 1 2.845.662 10.343 10.343 0 0 0-1.774 2.967 1 1 0 0 0 .558 1.3ZM35.832 13.555A5.45 5.45 0 0 1 40.006 11 1 1 0 0 0 40 9a7.442 7.442 0 0 0-5.832 3.445 1 1 0 0 0 1.664 1.11Z"
        class="cls-3" />
</svg>