<svg xmlns="http://www.w3.org/2000/svg" xml:space="preserve" viewBox="0 0 426.067 426.067"><path fill="#251e2d" d="M55.574 83.34h18.524v18.527H55.574z"/><g fill="#929497"><path d="M74.104 83.34h18.525v18.527H74.104z"/><path d="M92.624 83.34h18.524v18.527H92.624zM111.154 83.34h18.525v18.527h-18.525z"/><path d="M129.674 83.34h18.524v18.527h-18.524z"/><path d="M148.194 83.34h18.525v18.527h-18.525zM166.724 83.34h18.525v18.527h-18.525zM185.254 83.34h18.524v18.527h-18.524z"/><path d="M203.774 83.34h18.524v18.527h-18.524z"/></g><g fill="#808184"><path d="M222.294 83.34h18.524v18.527h-18.524zM240.824 83.34h18.524v18.527h-18.524z"/><path d="M259.344 83.34h18.525v18.527h-18.525zM277.874 83.34h18.523v18.527h-18.523z"/><path d="M296.394 83.34h18.523v18.527h-18.523z"/><path d="M314.914 83.34h18.525v18.527h-18.525zM333.444 83.34h18.523v18.527h-18.523z"/></g><g fill="#251e2d"><path d="M74.104 64.82h18.525v18.527H74.104z"/><path d="M92.624 64.82h18.524v18.527H92.624zM111.154 64.82h18.525v18.527h-18.525z"/><path d="M129.674 64.82h18.524v18.527h-18.524z"/><path d="M148.194 64.82h18.525v18.527h-18.525zM166.724 64.82h18.525v18.527h-18.525zM185.254 64.82h18.524v18.527h-18.524z"/><path d="M203.774 64.82h18.524v18.527h-18.524z"/><path d="M222.294 64.82h18.524v18.527h-18.524zM240.824 64.82h18.524v18.527h-18.524z"/><path d="M259.344 64.82h18.525v18.527h-18.525zM277.874 64.82h18.523v18.527h-18.523z"/><path d="M296.394 64.82h18.523v18.527h-18.523z"/><path d="M314.914 64.82h18.525v18.527h-18.525zM333.444 64.82h18.523v18.527h-18.523z"/><path d="M351.964 83.34h18.525v18.527h-18.525zM55.574 101.87h18.524v18.527H55.574z"/></g><path fill="#929497" d="M74.104 101.87h18.525v18.527H74.104z"/><g fill="#404041"><path d="M92.624 101.87h18.524v18.527H92.624zM111.154 101.87h18.525v18.527h-18.525z"/><path d="M129.674 101.87h18.524v18.527h-18.524z"/><path d="M148.194 101.87h18.525v18.527h-18.525zM166.724 101.87h18.525v18.527h-18.525zM185.254 101.87h18.524v18.527h-18.524z"/><path d="M203.774 101.87h18.524v18.527h-18.524z"/></g><g fill="#262626"><path d="M222.294 101.87h18.524v18.527h-18.524zM240.824 101.87h18.524v18.527h-18.524z"/><path d="M259.344 101.87h18.525v18.527h-18.525zM277.874 101.87h18.523v18.527h-18.523z"/><path d="M296.394 101.87h18.523v18.527h-18.523z"/><path d="M314.914 101.87h18.525v18.527h-18.525z"/></g><path fill="#808184" d="M333.444 101.87h18.523v18.527h-18.523z"/><g fill="#251e2d"><path d="M351.964 101.87h18.525v18.527h-18.525zM55.574 120.4h18.524v18.526H55.574z"/></g><path fill="#929497" d="M74.104 120.4h18.525v18.526H74.104z"/><g fill="#404041"><path d="M92.624 120.4h18.524v18.526H92.624zM111.154 120.4h18.525v18.526h-18.525z"/><path d="M129.674 120.4h18.524v18.526h-18.524z"/><path d="M148.194 120.4h18.525v18.526h-18.525zM166.724 120.4h18.525v18.526h-18.525zM185.254 120.4h18.524v18.526h-18.524z"/><path d="M203.774 120.4h18.524v18.526h-18.524z"/></g><g fill="#262626"><path d="M222.294 120.4h18.524v18.526h-18.524zM240.824 120.4h18.524v18.526h-18.524z"/><path d="M259.344 120.4h18.525v18.526h-18.525zM277.874 120.4h18.523v18.526h-18.523z"/><path d="M296.394 120.4h18.523v18.526h-18.523z"/><path d="M314.914 120.4h18.525v18.526h-18.525z"/></g><path fill="#808184" d="M333.444 120.4h18.523v18.526h-18.523z"/><g fill="#251e2d"><path d="M351.964 120.4h18.525v18.526h-18.525zM55.574 138.93h18.524v18.527H55.574z"/></g><path fill="#929497" d="M74.104 138.93h18.525v18.527H74.104z"/><g fill="#404041"><path d="M92.624 138.93h18.524v18.527H92.624zM111.154 138.93h18.525v18.527h-18.525z"/><path d="M129.674 138.93h18.524v18.527h-18.524z"/><path d="M148.194 138.93h18.525v18.527h-18.525zM166.724 138.93h18.525v18.527h-18.525zM185.254 138.93h18.524v18.527h-18.524z"/><path d="M203.774 138.93h18.524v18.527h-18.524z"/></g><g fill="#262626"><path d="M222.294 138.93h18.524v18.527h-18.524zM240.824 138.93h18.524v18.527h-18.524z"/><path d="M259.344 138.93h18.525v18.527h-18.525zM277.874 138.93h18.523v18.527h-18.523z"/><path d="M296.394 138.93h18.523v18.527h-18.523z"/><path d="M314.914 138.93h18.525v18.527h-18.525z"/></g><path fill="#808184" d="M333.444 138.93h18.523v18.527h-18.523z"/><g fill="#251e2d"><path d="M351.964 138.93h18.525v18.527h-18.525zM55.574 157.45h18.524v18.526H55.574z"/></g><path fill="#929497" d="M74.104 157.45h18.525v18.526H74.104z"/><g fill="#404041"><path d="M92.624 157.45h18.524v18.526H92.624zM111.154 157.45h18.525v18.526h-18.525z"/><path d="M129.674 157.45h18.524v18.526h-18.524z"/><path d="M148.194 157.45h18.525v18.526h-18.525zM166.724 157.45h18.525v18.526h-18.525zM185.254 157.45h18.524v18.526h-18.524z"/><path d="M203.774 157.45h18.524v18.526h-18.524z"/></g><g fill="#262626"><path d="M222.294 157.45h18.524v18.526h-18.524zM240.824 157.45h18.524v18.526h-18.524z"/><path d="M259.344 157.45h18.525v18.526h-18.525zM277.874 157.45h18.523v18.526h-18.523z"/><path d="M296.394 157.45h18.523v18.526h-18.523z"/><path d="M314.914 157.45h18.525v18.526h-18.525z"/></g><path fill="#808184" d="M333.444 157.45h18.523v18.526h-18.523z"/><g fill="#251e2d"><path d="M351.964 157.45h18.525v18.526h-18.525zM55.574 175.98h18.524v18.526H55.574z"/></g><path fill="#929497" d="M74.104 175.98h18.525v18.526H74.104z"/><g fill="#404041"><path d="M92.624 175.98h18.524v18.526H92.624zM111.154 175.98h18.525v18.526h-18.525z"/><path d="M129.674 175.98h18.524v18.526h-18.524z"/><path d="M148.194 175.98h18.525v18.526h-18.525zM166.724 175.98h18.525v18.526h-18.525zM185.254 175.98h18.524v18.526h-18.524z"/><path d="M203.774 175.98h18.524v18.526h-18.524z"/></g><g fill="#262626"><path d="M222.294 175.98h18.524v18.526h-18.524zM240.824 175.98h18.524v18.526h-18.524z"/><path d="M259.344 175.98h18.525v18.526h-18.525zM277.874 175.98h18.523v18.526h-18.523z"/><path d="M296.394 175.98h18.523v18.526h-18.523z"/><path d="M314.914 175.98h18.525v18.526h-18.525z"/></g><path fill="#808184" d="M333.444 175.98h18.523v18.526h-18.523z"/><g fill="#251e2d"><path d="M351.964 175.98h18.525v18.526h-18.525zM55.574 194.51h18.524v18.527H55.574z"/></g><path fill="#929497" d="M74.104 194.51h18.525v18.527H74.104z"/><g fill="#404041"><path d="M92.624 194.51h18.524v18.527H92.624zM111.154 194.51h18.525v18.527h-18.525z"/><path d="M129.674 194.51h18.524v18.527h-18.524z"/><path d="M148.194 194.51h18.525v18.527h-18.525zM166.724 194.51h18.525v18.527h-18.525zM185.254 194.51h18.524v18.527h-18.524z"/><path d="M203.774 194.51h18.524v18.527h-18.524z"/></g><g fill="#262626"><path d="M222.294 194.51h18.524v18.527h-18.524zM240.824 194.51h18.524v18.527h-18.524z"/><path d="M259.344 194.51h18.525v18.527h-18.525zM277.874 194.51h18.523v18.527h-18.523z"/><path d="M296.394 194.51h18.523v18.527h-18.523z"/><path d="M314.914 194.51h18.525v18.527h-18.525z"/></g><path fill="#808184" d="M333.444 194.51h18.523v18.527h-18.523z"/><g fill="#251e2d"><path d="M351.964 194.51h18.525v18.527h-18.525zM55.574 213.03h18.524v18.526H55.574z"/></g><path fill="#929497" d="M74.104 213.03h18.525v18.526H74.104z"/><g fill="#404041"><path d="M92.624 213.03h18.524v18.526H92.624zM111.154 213.03h18.525v18.526h-18.525z"/><path d="M129.674 213.03h18.524v18.526h-18.524z"/><path d="M148.194 213.03h18.525v18.526h-18.525zM166.724 213.03h18.525v18.526h-18.525zM185.254 213.03h18.524v18.526h-18.524z"/><path d="M203.774 213.03h18.524v18.526h-18.524z"/></g><g fill="#262626"><path d="M222.294 213.03h18.524v18.526h-18.524zM240.824 213.03h18.524v18.526h-18.524z"/><path d="M259.344 213.03h18.525v18.526h-18.525zM277.874 213.03h18.523v18.526h-18.523z"/><path d="M296.394 213.03h18.523v18.526h-18.523z"/><path d="M314.914 213.03h18.525v18.526h-18.525z"/></g><path fill="#808184" d="M333.444 213.03h18.523v18.526h-18.523z"/><g fill="#251e2d"><path d="M351.964 213.03h18.525v18.526h-18.525zM55.574 231.56h18.524v18.527H55.574z"/></g><g fill="#929497"><path d="M74.104 231.56h18.525v18.527H74.104z"/><path d="M92.624 231.56h18.524v18.527H92.624zM111.154 231.56h18.525v18.527h-18.525z"/><path d="M129.674 231.56h18.524v18.527h-18.524z"/><path d="M148.194 231.56h18.525v18.527h-18.525zM166.724 231.56h18.525v18.527h-18.525zM185.254 231.56h18.524v18.527h-18.524z"/><path d="M203.774 231.56h18.524v18.527h-18.524z"/></g><g fill="#808184"><path d="M222.294 231.56h18.524v18.527h-18.524zM240.824 231.56h18.524v18.527h-18.524z"/><path d="M259.344 231.56h18.525v18.527h-18.525zM277.874 231.56h18.523v18.527h-18.523z"/><path d="M296.394 231.56h18.523v18.527h-18.523z"/><path d="M314.914 231.56h18.525v18.527h-18.525zM333.444 231.56h18.523v18.527h-18.523z"/></g><g fill="#251e2d"><path d="M351.964 231.56h18.525v18.527h-18.525zM55.574 250.09h18.524v18.526H55.574z"/><path d="M37.054 268.61h18.524v18.526H37.054zM18.524 287.14h18.524v18.526H18.524z"/></g><path fill="#929497" d="M37.054 287.14h18.524v18.526H37.054z"/><g fill="#251e2d"><path d="M0 305.66h18.524v18.526H0zM18.524 305.66h18.524v18.526H18.524zM37.054 305.66h18.524v18.526H37.054zM74.104 250.09h18.525v18.526H74.104z"/><path d="M92.624 250.09h18.524v18.526H92.624zM111.154 250.09h18.525v18.526h-18.525z"/><path d="M129.674 250.09h18.524v18.526h-18.524z"/><path d="M148.194 250.09h18.525v18.526h-18.525zM166.724 250.09h18.525v18.526h-18.525zM185.254 250.09h18.524v18.526h-18.524z"/><path d="M203.774 250.09h18.524v18.526h-18.524z"/><path d="M222.294 250.09h18.524v18.526h-18.524zM240.824 250.09h18.524v18.526h-18.524z"/><path d="M259.344 250.09h18.525v18.526h-18.525zM277.874 250.09h18.523v18.526h-18.523z"/><path d="M296.394 250.09h18.523v18.526h-18.523z"/><path d="M314.914 250.09h18.525v18.526h-18.525zM333.444 250.09h18.523v18.526h-18.523z"/><path d="M351.964 250.09h18.525v18.526h-18.525z"/></g><path fill="#929497" d="M55.574 268.61h18.524v18.526H55.574z"/><path fill="#404041" d="M74.104 268.61h18.525v18.526H74.104z"/><path fill="#929497" d="M92.624 268.61h18.524v18.526H92.624z"/><path fill="#404041" d="M111.154 268.61h18.525v18.526h-18.525z"/><path fill="#929497" d="M129.674 268.61h18.524v18.526h-18.524z"/><path fill="#404041" d="M148.194 268.61h18.525v18.526h-18.525z"/><path fill="#929497" d="M166.724 268.61h18.525v18.526h-18.525z"/><path fill="#404041" d="M185.254 268.61h18.524v18.526h-18.524z"/><path fill="#929497" d="M203.774 268.61h18.524v18.526h-18.524z"/><path fill="#262626" d="M222.294 268.61h18.524v18.526h-18.524z"/><g fill="#808184"><path d="M240.824 268.61h18.524v18.526h-18.524z"/><path d="M259.344 268.61h18.525v18.526h-18.525zM277.874 268.61h18.523v18.526h-18.523z"/></g><path fill="#262626" d="M296.394 268.61h18.523v18.526h-18.523z"/><path fill="#808184" d="M314.914 268.61h18.525v18.526h-18.525z"/><path fill="#262626" d="M333.444 268.61h18.523v18.526h-18.523z"/><path fill="#808184" d="M351.964 268.61h18.525v18.526h-18.525z"/><g fill="#251e2d"><path d="M370.494 268.61h18.525v18.526h-18.525zM389.014 287.14h18.524v18.526h-18.524z"/></g><path fill="#808184" d="M370.494 287.14h18.525v18.526h-18.525z"/><g fill="#251e2d"><path d="M389.014 305.66h18.524v18.526h-18.524z"/><path d="M370.494 305.66h18.525v18.526h-18.525zM407.544 305.66h18.523v18.527h-18.523z"/></g><path fill="#404041" d="M55.574 287.14h18.524v18.526H55.574z"/><path fill="#929497" d="M74.104 287.14h18.525v18.526H74.104z"/><path fill="#404041" d="M92.624 287.14h18.524v18.526H92.624z"/><path fill="#929497" d="M111.154 287.14h18.525v18.526h-18.525z"/><path fill="#404041" d="M129.674 287.14h18.524v18.526h-18.524z"/><path fill="#929497" d="M148.194 287.14h18.525v18.526h-18.525z"/><path fill="#404041" d="M166.724 287.14h18.525v18.526h-18.525z"/><path fill="#929497" d="M185.254 287.14h18.524v18.526h-18.524z"/><path fill="#404041" d="M203.774 287.14h18.524v18.526h-18.524z"/><g fill="#808184"><path d="M222.294 287.14h18.524v18.526h-18.524zM240.824 287.14h18.524v18.526h-18.524z"/><path d="M259.344 287.14h18.525v18.526h-18.525z"/></g><path fill="#262626" d="M277.874 287.14h18.523v18.526h-18.523z"/><path fill="#808184" d="M296.394 287.14h18.523v18.526h-18.523z"/><path fill="#262626" d="M314.914 287.14h18.525v18.526h-18.525z"/><path fill="#808184" d="M333.444 287.14h18.523v18.526h-18.523z"/><path fill="#262626" d="M351.964 287.14h18.525v18.526h-18.525z"/><g fill="#251e2d"><path d="M55.574 305.66h18.524v18.526H55.574zM74.104 305.66h18.525v18.526H74.104z"/><path d="M92.624 305.66h18.524v18.526H92.624zM111.154 305.66h18.525v18.526h-18.525z"/><path d="M129.674 305.66h18.524v18.526h-18.524z"/><path d="M148.194 305.66h18.525v18.526h-18.525zM166.724 305.66h18.525v18.526h-18.525zM185.254 305.66h18.524v18.526h-18.524z"/><path d="M203.774 305.66h18.524v18.526h-18.524z"/><path d="M222.294 305.66h18.524v18.526h-18.524zM240.824 305.66h18.524v18.526h-18.524z"/><path d="M259.344 305.66h18.525v18.526h-18.525zM277.874 305.66h18.523v18.526h-18.523z"/><path d="M296.394 305.66h18.523v18.526h-18.523z"/><path d="M314.914 305.66h18.525v18.526h-18.525zM333.444 305.66h18.523v18.526h-18.523z"/><path d="M351.964 305.66h18.525v18.526h-18.525zM0 324.19h18.524v18.526H0z"/></g><g fill="#929497"><path d="M18.524 324.19h18.524v18.526H18.524zM37.054 324.19h18.524v18.526H37.054z"/></g><g fill="#808184"><path d="M389.014 324.19h18.524v18.526h-18.524z"/><path d="M370.494 324.19h18.525v18.526h-18.525z"/></g><path fill="#251e2d" d="M407.544 324.19h18.523v18.527h-18.523z"/><g fill="#929497"><path d="M55.574 324.19h18.524v18.526H55.574zM74.104 324.19h18.525v18.526H74.104z"/><path d="M92.624 324.19h18.524v18.526H92.624zM111.154 324.19h18.525v18.526h-18.525z"/><path d="M129.674 324.19h18.524v18.526h-18.524z"/><path d="M148.194 324.19h18.525v18.526h-18.525zM166.724 324.19h18.525v18.526h-18.525zM185.254 324.19h18.524v18.526h-18.524z"/><path d="M203.774 324.19h18.524v18.526h-18.524z"/></g><g fill="#808184"><path d="M222.294 324.19h18.524v18.526h-18.524zM240.824 324.19h18.524v18.526h-18.524z"/><path d="M259.344 324.19h18.525v18.526h-18.525zM277.874 324.19h18.523v18.526h-18.523z"/><path d="M296.394 324.19h18.523v18.526h-18.523z"/><path d="M314.914 324.19h18.525v18.526h-18.525zM333.444 324.19h18.523v18.526h-18.523z"/><path d="M351.964 324.19h18.525v18.526h-18.525z"/></g><g fill="#251e2d"><path d="M18.524 342.72h18.524v18.527H18.524zM37.054 342.72h18.524v18.527H37.054zM389.014 342.72h18.524v18.527h-18.524z"/><path d="M370.494 342.72h18.525v18.527h-18.525zM55.574 342.72h18.524v18.527H55.574zM74.104 342.72h18.525v18.527H74.104z"/><path d="M92.624 342.72h18.524v18.527H92.624zM111.154 342.72h18.525v18.527h-18.525z"/><path d="M129.674 342.72h18.524v18.527h-18.524z"/><path d="M148.194 342.72h18.525v18.527h-18.525zM166.724 342.72h18.525v18.527h-18.525zM185.254 342.72h18.524v18.527h-18.524z"/><path d="M203.774 342.72h18.524v18.527h-18.524z"/><path d="M222.294 342.72h18.524v18.527h-18.524zM240.824 342.72h18.524v18.527h-18.524z"/><path d="M259.344 342.72h18.525v18.527h-18.525zM277.874 342.72h18.523v18.527h-18.523z"/><path d="M296.394 342.72h18.523v18.527h-18.523z"/><path d="M314.914 342.72h18.525v18.527h-18.525zM333.444 342.72h18.523v18.527h-18.523z"/><path d="M351.964 342.72h18.525v18.527h-18.525z"/></g></svg>