<svg id="Layer_1" enable-background="new 0 0 512 512" viewBox="0 0 512 512" xmlns="http://www.w3.org/2000/svg"><g id="_x34_6_sprout_00000156565091036543124770000011285818317286478988_"><g><path d="m90.35 271.06h-30.11v-30.12h30.11v-30.12h90.36v30.12h30.11v60.24l15.05 15.06-15.05 15.05h-90.35v-30.11h-30.12z"/><path d="m331.29 180.71-30.11-30.12v-60.24h30.11v-30.11h90.36v90.35h-30.12v30.12z"/><path d="m481.88 451.76v60.24h-451.76v-60.24h30.12v-30.11h30.11v-30.12h120.47l15.06 15.06 15.06-15.06h30.12v-30.12h120.47v30.12h30.12v30.12h30.11v30.11z"/><path d="m120.47 90.35h-30.12v-90.35h90.36v30.12h60.23v30.12h30.12v90.35l-30.12 30.12h-90.35v-30.12h-30.12z"/></g><g><g fill="#8fe26a"><path d="m180.71 240.94v30.12l-30.12 15.06-30.12-15.06h-30.12v-30.12z"/><path d="m391.53 90.35v30.12l-30.12 15.06-30.12-15.06v-30.12z"/><path d="m240.94 60.24v60.23l-45.18 15.06-45.17-15.06v-30.12h-30.12v-30.11l30.12-15.06 30.12 15.06z"/></g><g><path d="m421.65 421.65v30.11l-195.77 23.97-135.53-23.97v-30.11h30.12l15.06 15.05 15.06-15.05h60.23v30.11l15.06 7.622 15.06-7.622v-30.11h30.12v-30.12h60.23l15.06 15.06 15.06-15.06h30.12v30.12z" fill="#c37e4e"/></g></g><g><g fill="#5c371e"><path d="m331.29 391.53h30.12v30.12h-30.12z"/><path d="m301.18 421.65v30.11l-15.06 15.06-15.06-15.06v-30.11z"/><path d="m150.59 421.65v30.11l-15.06 15.06-15.06-15.06v-30.11z"/></g><g><path d="m60.24 451.76h391.52v30.12h-391.52z" fill="#9a5e34"/></g><g fill="#49a420"><path d="m120.47 271.06h60.24v30.12h-60.24z"/><path d="m331.29 120.47h60.24v30.12h-60.24z"/><path d="m150.59 120.47h90.35v30.12h-90.35z"/></g><g><path d="m120.47 30.12h60.24v30.12h-60.24z" fill="#daf5cd"/></g><g fill="#306c15"><path d="m301.18 150.59h30.11v30.12h-30.11z"/><path d="m240.94 150.59h30.12v30.12h-30.12z"/><path d="m210.82 301.18h30.12v120.47h-30.12z"/><path d="m271.06 180.71h30.12v60.23h-30.12z"/><path d="m240.94 240.94h30.12v60.24h-30.12z"/></g></g></g><g/><g/><g/><g/><g/><g/><g/><g/><g/><g/><g/><g/><g/><g/><g/></svg>